<svg xmlns="http://www.w3.org/2000/svg" viewBox="0 0 400 400">
  <rect width="400" height="400" fill="#E6F1FB"/>
  <ellipse cx="200" cy="235" rx="150" ry="145" fill="#FFFFFF"/>
  <ellipse cx="200" cy="235" rx="122" ry="118" fill="#F7F5F0"/>
  <ellipse cx="200" cy="330" rx="110" ry="14" fill="#123A66" opacity="0.07"/>
  <path d="M155 130 h30 v30 q30 20 30 60 v90 q0 12 -12 12 h-66 q-12 0 -12 -12 v-90 q0 -40 30 -60 z" fill="#0D5EAF"/>
  <rect x="150" y="118" width="40" height="18" rx="4" fill="#123A66"/>
  <rect x="140" y="230" width="60" height="24" fill="#FFFFFF" opacity="0.85"/>
  <g>
    <path d="M255 200 h50 v18 l-6 8 v70 h-38 v-70 l-6 -8 z" fill="#7EB6E8" opacity="0.5" stroke="#7EB6E8" stroke-width="2"/>
    <rect x="259" y="204" width="42" height="14" rx="3" fill="#D4A94E"/>
    <path d="M261 226 h46 v66 h-46 z" fill="#EAF3FC" opacity="0.9"/>
  </g>
  <circle cx="90" cy="150" r="4" fill="#D4A94E"/>
  <circle cx="320" cy="130" r="5" fill="#8A9A5B"/>
  <path d="M120 300 q20 8 40 0" stroke="#8A9A5B" stroke-width="4" fill="none" stroke-linecap="round"/>
</svg>
