<svg xmlns="http://www.w3.org/2000/svg" viewBox="0 0 400 400">
  <rect width="400" height="400" fill="#E6F1FB"/>
  <ellipse cx="200" cy="235" rx="150" ry="145" fill="#FFFFFF"/>
  <ellipse cx="200" cy="235" rx="122" ry="118" fill="#F7F5F0"/>
  <g>
    <path d="M145 165 h60 l-8 130 h-44 z" fill="#EAF3FC" stroke="#BFDBF3" stroke-width="2"/>
    <path d="M149 200 h52 l-6 95 h-40 z" fill="#F7DE73" opacity="0.85"/>
    <rect x="170" y="130" width="10" height="45" rx="4" fill="#0D5EAF"/>
    <circle cx="160" cy="215" r="7" fill="#FFFFFF" opacity="0.9"/>
    <circle cx="185" cy="240" r="6" fill="#FFFFFF" opacity="0.9"/>
    <circle cx="165" cy="260" r="5" fill="#FFFFFF" opacity="0.9"/>
  </g>
  <g>
    <path d="M240 180 h50 l-7 110 h-36 z" fill="#EAF3FC" stroke="#BFDBF3" stroke-width="2"/>
    <path d="M244 210 h42 l-5 78 h-32 z" fill="#8FD0C9" opacity="0.85"/>
    <rect x="260" y="150" width="8" height="38" rx="4" fill="#0D5EAF"/>
    <circle cx="252" cy="225" r="6" fill="#FFFFFF" opacity="0.9"/>
    <circle cx="272" cy="245" r="5" fill="#FFFFFF" opacity="0.9"/>
  </g>
  <circle cx="100" cy="130" r="4" fill="#D4A94E"/>
  <circle cx="320" cy="300" r="5" fill="#7EB6E8"/>
  <path d="M150 320 q40 12 80 0" stroke="#8A9A5B" stroke-width="4" fill="none" stroke-linecap="round"/>
</svg>
