<svg xmlns="http://www.w3.org/2000/svg" viewBox="0 0 400 400">
  <rect width="400" height="400" fill="#E6F1FB"/>
  <ellipse cx="200" cy="235" rx="150" ry="145" fill="#FFFFFF"/>
  <ellipse cx="200" cy="235" rx="122" ry="118" fill="#F7F5F0"/>
  <g transform="rotate(-18 200 235)">
    <rect x="90" y="230" width="220" height="8" rx="4" fill="#C99A5B"/>
    <g fill="#C1683F">
      <rect x="110" y="205" width="44" height="44" rx="10"/>
      <rect x="160" y="205" width="44" height="44" rx="10"/>
      <rect x="210" y="205" width="44" height="44" rx="10"/>
      <rect x="260" y="205" width="34" height="44" rx="10"/>
    </g>
    <g fill="#9C4E30" opacity="0.55">
      <rect x="118" y="213" width="10" height="10" rx="3"/>
      <rect x="176" y="228" width="10" height="10" rx="3"/>
      <rect x="228" y="212" width="10" height="10" rx="3"/>
      <rect x="270" y="230" width="10" height="10" rx="3"/>
    </g>
  </g>
  <ellipse cx="200" cy="290" rx="60" ry="10" fill="#E7DAC0"/>
  <g fill="#D4A94E">
    <circle cx="290" cy="150" r="6"/>
    <circle cx="110" cy="150" r="5"/>
  </g>
  <path d="M120 300 q15 -10 30 0" stroke="#8A9A5B" stroke-width="4" fill="none" stroke-linecap="round"/>
  <circle cx="90" cy="180" r="4" fill="#7EB6E8"/>
</svg>
