<svg xmlns="http://www.w3.org/2000/svg" viewBox="0 0 600 400">
  <defs>
    <linearGradient id="sky" x1="0" y1="0" x2="0" y2="1">
      <stop offset="0%" stop-color="#7EB6E8"/>
      <stop offset="100%" stop-color="#EAF3FC"/>
    </linearGradient>
    <linearGradient id="sea" x1="0" y1="0" x2="0" y2="1">
      <stop offset="0%" stop-color="#0D5EAF"/>
      <stop offset="100%" stop-color="#123A66"/>
    </linearGradient>
  </defs>
  <rect width="600" height="400" fill="url(#sky)"/>
  <rect y="290" width="600" height="110" fill="url(#sea)"/>
  <circle cx="500" cy="70" r="34" fill="#FDF3D8" opacity="0.9"/>
  <g fill="#FFFFFF">
    <rect x="30" y="200" width="120" height="90" rx="6"/>
    <rect x="150" y="180" width="90" height="110" rx="6"/>
    <rect x="240" y="210" width="130" height="80" rx="6"/>
    <rect x="370" y="185" width="100" height="105" rx="6"/>
    <rect x="470" y="205" width="110" height="85" rx="6"/>
  </g>
  <g fill="#0D5EAF">
    <circle cx="60" cy="200" r="26"/>
    <circle cx="185" cy="180" r="30"/>
    <circle cx="300" cy="210" r="24"/>
    <circle cx="415" cy="185" r="28"/>
    <circle cx="520" cy="205" r="22"/>
  </g>
  <g fill="#EAF3FC" opacity="0.9">
    <rect x="60" y="230" width="18" height="24" rx="3"/>
    <rect x="185" y="215" width="18" height="24" rx="3"/>
    <rect x="300" y="235" width="18" height="24" rx="3"/>
    <rect x="415" y="220" width="18" height="24" rx="3"/>
  </g>
  <path d="M0 300 Q150 280 300 300 T600 300 V400 H0 Z" fill="#123A66" opacity="0.5"/>
</svg>
